# xmcd
#
# Track frame offsets: 
#        150
#        15396
#        24001
#        47030
#        62219
#        82242
#        100284
#        118935
#        134554
#        149880
#
# Disc length: 2254 seconds
#
# Revision: 2
# Processed by: cddbd v1.5.2PL0 Copyright (c) Steve Scherf et al.
# Submitted via: ExactAudioCopyFreeDBPlugin 1.0
#
DISCID=9108cc0a
DTITLE=Chuck Leavell - Forever Blue Solo Piano
DYEAR=2001
DGENRE=Blues
TTITLE0=Forever Blue
TTITLE1=Song for Amy
TTITLE2=Blue Rose
TTITLE3=Comin' Home
TTITLE4=Ashokan Farewell
TTITLE5=A Lotta Colada
TTITLE6=Just Before Dawn
TTITLE7=Walk a Little Closer
TTITLE8=Higher Ground
TTITLE9=Georgia on My Mind
EXTD=ID3G:   0
EXTT0=
EXTT1=
EXTT2=
EXTT3=
EXTT4=
EXTT5=
EXTT6=
EXTT7=
EXTT8=
EXTT9=
PLAYORDER=
